<?xml version="1.0" encoding="UTF-8"?>
<svg xmlns="http://www.w3.org/2000/svg" xmlns:xlink="http://www.w3.org/1999/xlink" viewBox="0 0 394.04 158.84">
  <defs>
    <style>
      .cls-1 {
        fill: #77677c;
      }

      .cls-2 {
        fill: url(#_名称未設定グラデーション_13);
      }

      .cls-3 {
        fill: none;
        stroke: #77677c;
        stroke-miterlimit: 10;
      }
    </style>
    <linearGradient id="_名称未設定グラデーション_13" data-name="名称未設定グラデーション 13" x1="37.88" y1="93.13" x2="362.93" y2="93.13" gradientUnits="userSpaceOnUse">
      <stop offset="0" stop-color="#aa9ebc"/>
      <stop offset="1" stop-color="#77677c"/>
    </linearGradient>
  </defs>
  <g id="_レイヤー_2" data-name="レイヤー 2">
    <g>
      <g>
        <g>
          <path class="cls-1" d="m67.29,99.63c-1.06,5.36-2.49,9.52-4.19,12.47-.59.97-1.21,1.51-1.78,1.61-.53.09-1.21-.18-1.93-.77-.74-.62-1.11-1.16-1.11-1.65,0-.29.06-.5.14-.61.1-.14.23-.38.47-.71,1.12-2.29,2.29-5.5,3.44-9.65,1.13-4.09,1.73-8.26,1.74-12.52,0-1.16-.74-1.68-2.08-1.48-3.41.52-8.76.98-10.12,2.24-.6.56-1.29,3.6-2.3,6.52-3.02,8.68-4.71,14.3-5.35,16.65-.4,1.45-.84,2.88-1.29,4.26-.38.67-.78,1.11-1.22,1.2s-.87-.25-1.34-.98c-.49-.78-.74-1.41-.74-1.96,0-.49.14-1.12.5-1.94.63-1.58.95-2.37,1.59-3.94.44-1.08,1.47-4.4,3.26-9.96,1.08-3.39,1.63-5.09,2.76-8.47-3.21,1.18-5.25,2.17-6.37,2.89-.99.63-1.55.95-1.76,1-.85.17-1.43-.89-1.7-3.21.05-.25.08-.37.14-.62,3.39-1.73,7.11-3.23,11.18-4.54.2-.6.3-.9.5-1.51,1.56-4.77,2.69-7.84,3.4-9.31.35-.84,1.01-1.38,1.95-1.53,1.25-.2,2.03.42,2.31,1.83,0,.44-.51,1.63-1.51,3.59-.54,1.01-1.36,2.89-2.42,5.71,3.42-.87,6.34-1.47,8.65-1.81,2.26-.34,4.11.08,5.42,1.19.75.71,1.16,1.82,1.16,3.31-.01,4-.48,8.23-1.36,12.69Z"/>
          <path class="cls-1" d="m118.01,103.97c-7.36,1.56-15.24,2.77-23.45,3.58-6.4.63-10.39-.1-12.35-2.3-1.34-1.51-2-3.82-1.98-6.88,0-1.58.1-5.21.32-10.86.21-5.59.31-9.51.32-11.72,0-.38-.09-.98-.22-1.6-.13-.63-.22-1.08-.22-1.36,0-.57.31-1.03.95-1.44.5-.32,1.12-.55,1.86-.62,1.19-.12,2.1.27,2.79,1.1.23.65.4,1.39.39,2.35-.01,2.86-.26,6.94-.62,12.14.05,0,.07,0,.12-.01,6.33-1.86,13.83-5.54,22.87-10.87.39-.21.67-.47.84-.8.14-.27.58-.5,1.3-.54,1.17-.06,2.18.17,2.94.61.78.45,1.18,1.13,1.18,1.93,0,.71-.6,1.3-1.78,1.83-.47.21-.71.32-1.18.53-5.1,2.34-8.17,3.84-9.43,4.41-3.39,1.57-6.27,2.85-8.74,3.79-4.34,1.68-7.04,2.64-8.41,2.89-.24,3.85-.37,6.82-.38,8.87-.02,3.96,3.04,5.52,9.75,4.88,4.29-.41,10.53-1.64,19.17-3.32.92-.29,1.59-.46,2.12-.49,1.2-.06,2.32.27,3.07.94.34.32.51.69.51,1.11,0,.66-.52,1.29-1.72,1.87Zm5.83-29.65c-1.08.97-2.55,1.48-4.4,1.55-1.79.06-3.68-.29-4.85-.98-1.2-.71-1.83-1.8-1.83-3.22,0-.94.37-1.91,1.13-2.88.73-.94,1.65-1.68,2.78-2.19.66-.31,1.27-.47,1.67-.49.67-.02,1.37.14,2.18.4.14.09.21.13.34.22,1.38-.04,2.54.35,3.35,1.13.78.75,1.22,1.76,1.22,2.89,0,1.41-.57,2.65-1.59,3.57Zm-2.19-5.02c-.27-.19-.79-.42-1.26-.53-.61-.13-1.13-.29-1.39-.57-1.59,1-2.41,2.07-2.41,3.2,0,1.7,1.06,2.45,2.57,2.4.81-.03,1.63-.34,2.25-1.02.52-.57.8-1.3.81-1.95,0-.71-.23-1.3-.56-1.54Z"/>
          <path class="cls-1" d="m143.81,76.94c-.41.56-.67.84-.67.84-1.14,1.77-2.49,4.33-3.97,7.75-1.65,3.69-2.48,5.54-4.15,9.25-.96,2.12-1.82,3.97-2.21,5.37-.26.93-.86,1.51-1.88,1.53-.64,0-1.34-.45-2.09-1.28-.75-.83-1.13-1.57-1.13-2.19,0-.19.11-.43.33-.81.35-.53.53-.8.88-1.33.88-1.33,1.92-3.33,3.22-6.07,2.52-5.39,3.77-8.07,6.23-13.41.1-.14.21-.47.42-.98.11-.3.16-.45.27-.75.27-.75.84-1.17,1.71-1.16.82,0,1.7.29,2.44.78.69.46,1.1,1.1,1.09,1.66,0,.14-.21.42-.51.79Zm26.18,24.66c-.48.51-1.15.76-1.74.67-1-.16-1.58-.63-1.57-1.1.02-1.13-.24-2.65-.77-4.67-1.68-6.28-3.95-11.74-6.84-16.31-.7-1.07-1.36-1.9-1.97-2.54-.38-.25-.67-.45-.86-.56-.38-.25-.52-.59-.51-1.01,0-.38.3-.85.69-1.38.41-.55.98-.99,1.74-.95.57.03,1.33.54,2.27,1.53,2.24,2.47,4.5,6.33,6.75,11.52,2.4,5.52,3.59,9.87,3.54,12.98-.01.75-.28,1.35-.73,1.83Zm-3.15-25.66c-.38.26-.8.37-1.27.34-.09,0-.17-.14-.23-.34-.03-.09-.15-.27-.31-.52-.24-.38-.48-.77-.66-1-.2-.25-.63-.7-1.42-.93-.17-.05-.76-.21-1.21-.77-.32-.41-.39-.89-.45-1.02-.05-.11-.25-.34-.18-.48.15-.35,1.29.12,1.66-.34.32-.39-.28-1.07-.02-1.36.34-.39,2.02.2,3.18,1.34,1.25,1.22,1.76,2.89,1.54,3.94-.05.25-.16.82-.63,1.14Zm4.4-2.85c-.43.3-.85.41-1.27.38-.14,0-.24-.11-.28-.3-.07-.34-.21-.82-.59-1.17-.61-.56-1.28-.33-1.94-.75-.4-.26-.64-1.36-1.02-1.99-.06-.09-.18-.29-.18-.53,0-.16-.04-.41.09-.55.27-.3,1.01.08,1.11-.1.09-.17-.52-.56-.44-.82.07-.23.66-.22.87-.21,2.04.11,3.21,1.44,3.21,1.44,0,0,1.12,1.26,1.06,3.52,0,.07.25.47-.63,1.09Z"/>
          <path class="cls-1" d="m206.35,98.06c-3.09,2.87-6.57,5.4-10.5,7.55-6.19,3.43-10.39,5.25-12.04,4.87-1.28-.29-2.23-1.97-2.47-4.45,1.69-.22,3.83-.81,6.4-1.78,2.15-.81,5.06-2.37,8.78-4.55,3.84-2.24,6.88-4.75,9.04-7.58.72-.97,1.14-1.93,1.15-2.98.02-1.43-1-2.29-2.9-2.48-1.85-.19-4.6-.28-8.18-.3-5.33-.02-10.68.56-16.03,1.74-1.27.27-1.97.4-2.16.38-1.4-.12-2.08-1.26-2.05-3.43,0-.34,0-.51.01-.85,9.16-1.52,19.42-2,28.65-1.04,1.8.19,3.32.71,4.54,1.59,1.73,1.31,2.65,2.93,2.63,4.74-.03,2.76-1.7,5.6-4.88,8.56Zm-2.52-21.05c-.2-.02-.55-.1-.99-.24-.48-.08-.71-.13-1.19-.21-.4-.04-.84-.13-1.28-.17-5.32-.52-10.32-.57-15.23-.21-1.25.1-1.87.14-3.11.24-.84-.07-1.49-.65-1.89-1.72-.18-.39-.24-.8-.21-1.25.03-.49.39-1.01,1.01-1.47.74.25,1.4.4,2.01.46.33.03,1.5.04,3.53-.02,1.78,0,2.67-.01,4.46-.02,2.72.06,5.82.05,9.34-.01,1.17-.02,1.88-.06,2.03-.04.89.09,1.88.61,2.88,1.47.4.42.64.92.64,1.49-.02,1.28-.68,1.84-1.98,1.71Z"/>
          <path class="cls-1" d="m253.84,96.94c-2.35,3.89-7.42,7.35-12.77,10.35-3.91,2.19-6.55,3.67-8.1,4.49-4.05,1.94-7.16,3-8.81,2.66-1.66-.34-2.78-2.15-3.09-4.76.39-.06.78-.11,1.22-.17,4.91-1,11.45-4.15,20.1-9.69,5.64-3.6,9.95-7.62,11.78-12.05.61-1.51.97-3.08.99-4.63.02-1.55-.77-2.37-2.27-2.46-3.61-.23-12.46-.16-18.62.6-1.78.24-3.92.47-6.22.88-1.35.24-2.1.35-2.16.34-1.86-.16-2.73-1.44-2.71-3.88,0-.34,0-.52,0-.86,9.76-1.18,20.07-1.63,29.89-1.02,1.46.09,2.63.65,3.49,1.47.88.83,1.49,1.78,1.7,2.71.22.95.41,1.77.4,2.35-.04,3.97-1.75,8.57-4.83,13.68Zm7.18-15.48c-.34.27-.72.4-1.12.37-.08,0-.14-.14-.19-.35-.05-.18-.34-.73-.81-1.55-.4-.69-.92-1.31-1.45-1.92-.23-.16-.61-.42-1.06-.84-.11-.05-.15-.2-.15-.49.01-1.21.43-1.81,1.32-1.76.62.03,1.44.76,2.44,2.12,1.02,1.39,1.53,2.46,1.52,3.23,0,.48-.17.93-.49,1.18Zm3.36-2.49c-.37.31-.75.45-1.11.43-.12,0-.2-.11-.24-.3-.24-.74-.68-1.59-1.39-2.5-.52-.61-1.07-1.12-1.66-1.44-.12-.1-.16-.3-.15-.54,0-.48.15-.87.41-1.24.25-.35.56-.55.96-.53.56.03,1.32.7,2.28,2.01s1.46,2.3,1.45,2.98c0,.48-.22.86-.55,1.14Z"/>
          <path class="cls-1" d="m299.59,109.53c-.06,1.07-.1,1.78-.12,2.1-.05.83-.43,1.46-.85,1.83-.42.38-1,.56-1.63.54-.63-.02-1.25-.28-1.81-.69-.33-.24-.49-.37-.82-.61-.26-.06-.56-.07-.97-.08-2.04-.06-5.24-.07-9.44-.05-.34-.01-8.84-1.54-12.23.4-.31.18-.8.83-1.42.8-.88-.05-1.47-.71-1.81-1.94-.76-1.21-1.06-6.27-.97-15.19.02-2.57.24-6.72.37-12.16,0-.24,0-.63-.03-1.07-.03-.4-.08-.78-.08-1.02,0-.97.52-1.43,1.64-1.38.48.02,1.25.74,1.82.91,5.08,1.49,16.07-1.03,22.81-.87,2.45.06,4.45,1.1,5.27,2.85.35.74.51,2.11.5,3.77-.09,8.74-.14,13.11-.24,21.85Zm-4.75-24.01c-.3-.54-.71-.85-1.32-.86-6.37-.16-13.04.04-19.56.69-.62.06-1.34.18-2.23.29-.06.39-.08.58-.14.96-.33,2.17-.49,5.56-.53,10.22-.03,3.06.02,5.75.15,7.97.09,1.54.2,2.82.23,3.56.01.27,0,.64.08.68.26.16,1.29.07,2.09.06,1.35-.03,3.87-.05,7.67-.13,5.18-.13,7.89-.21,13.51-.39.15-7.37.25-14.25.29-20.65,0-.88-.09-1.66-.24-2.4Z"/>
          <path class="cls-1" d="m348.23,101.31c-2.88,3.8-6.5,7.42-10.84,10.91-6.56,5.28-11.22,8.15-13.37,7.91-1.45-.16-2.51-1.78-2.85-4.24,1.81-.28,4.48-1.64,8-4.01,2.88-1.95,5.88-4.4,8.86-7.34,2.98-2.94,5.46-5.84,7.34-8.69,1.84-2.78,2.81-5.14,2.81-7.11,0-1.13-1.15-1.7-3.43-1.65-4.17.08-8.32.64-12.32,1.56-1.7.46-3.32.91-4.99,1.36-2.86.8-4.43,1.14-4.72,1.14h-.12c-1.64,1.67-3.09,3.25-4.36,4.8-1.37,1.66-2.3,3.27-2.71,4.84-1.36-.01-2.49-.46-3.44-1.36-.67-.6-.94-1.24-.94-2.02,0-.74,1.01-2.19,3.05-4.38,4.37-4.67,8.68-8.65,12.97-11.97,1.01-.79,2.04-1.66,3.11-2.43,1.47-1.05,2.72-1.6,3.57-1.61,1.1-.01,1.92.22,2.44.71.49.46.8.97.79,1.47,0,.54-.28,1.04-.68,1.24-.5.25-1.41.66-2.39,1.26-1.59,1.05-3.22,2.25-4.96,3.64,1.32-.21,3.01-.53,5.14-.83,3.88-.56,7.52-.9,10.74-.96,3.79-.08,6.44.78,7.86,2.52.58.77.91,1.55.91,2.39,0,3.85-1.92,8.16-5.49,12.87Zm7.58-17.67c-.52.31-1.11.48-1.76.5-.13,0-.24-.14-.32-.34-.08-.18-.58-.72-1.36-1.49-.67-.67-1.55-1.24-2.45-1.81-.38-.14-1.03-.37-1.79-.74-.19-.04-.25-.19-.25-.49,0-1.23.7-1.89,2.18-1.93,1.03-.03,2.4.62,4.06,1.91,1.68,1.3,2.54,2.34,2.54,3.13,0,.49-.33.95-.85,1.26Zm6.26-3.47c-.6.36-1.2.54-1.79.56-.2,0-.33-.09-.4-.28-.4-.73-1.12-1.54-2.3-2.39-.85-.56-1.77-1.03-2.74-1.3-.19-.09-.26-.29-.26-.53,0-.49.2-.97.59-1.35.37-.36.98-.57,1.63-.6.92-.03,2.16.57,3.75,1.8,1.59,1.23,2.39,2.19,2.39,2.88,0,.49-.34.9-.86,1.22Z"/>
        </g>
        <path class="cls-1" d="m289.14,96.47c2.46.08,2.49-3.67.03-3.75-2.46-.08-2.49,3.67-.03,3.75h0Z"/>
        <path class="cls-1" d="m277.23,96.62c2.28.1,2.31-3.64.03-3.74-2.28-.1-2.31,3.64-.03,3.74h0Z"/>
        <path class="cls-1" d="m281.74,95.86c.2.16.41.33.61.49.23.19.47.38.78.39.3,0,.55-.14.79-.3.23-.16.46-.33.68-.51.19-.15.18-.49,0-.66-.19-.19-.46-.19-.66-.02-.09.07-.18.14-.27.21-.04.03-.05.03,0,0-.02.02-.05.03-.07.05-.03.02-.07.05-.11.07-.09.06-.18.12-.28.18-.02.01-.05.02-.07.04.05-.02.05-.02,0,0-.05.01-.05.01.01,0-.05,0-.05,0-.01,0,.03,0,.03,0-.01,0,.05.03.05.03,0,0-.04-.03-.09-.06-.13-.09-.09-.07-.17-.14-.26-.21-.18-.15-.36-.29-.54-.44-.19-.15-.52-.06-.63.14-.13.24-.05.48.16.65h0Z"/>
        <path class="cls-1" d="m282.65,96.84c0,.34,0,.68,0,1.01,0,.12.05.25.13.34.08.08.21.15.32.15.12,0,.24-.04.33-.12.08-.09.14-.2.14-.33,0-.34,0-.68,0-1.01,0-.12-.05-.25-.13-.34-.08-.08-.21-.15-.32-.15-.12,0-.24.04-.33.12-.08.09-.14.2-.14.33h0Z"/>
        <path class="cls-1" d="m280.37,97.38c.21.55.61.95,1.16,1.14.27.09.55.11.83.08.29-.04.51-.2.77-.3.03-.01.07-.03.1-.03-.08,0,.07.05.09.07.13.09.25.16.39.22.24.1.51.15.77.13.58-.04,1.08-.31,1.41-.79.33-.5-.47-.99-.8-.5-.18.27-.5.38-.81.35-.15-.01-.29-.07-.42-.17-.25-.17-.5-.29-.81-.24-.4.06-.69.39-1.1.33-.26-.04-.59-.23-.7-.51-.09-.24-.3-.41-.56-.35-.21.05-.41.32-.32.56h0Z"/>
        <path class="cls-1" d="m289.23,81.78c-.09-1.59-.14-3.32,1.24-4.4.26-.21.58-.37.9-.47.31-.1.72-.21,1.03-.02.54.33.73,1.17.85,1.72.23,1,.31,2.02.3,3.03,0,.6.98.63.98.02.01-1.07-.09-2.15-.32-3.19-.18-.82-.48-1.77-1.21-2.31-.78-.57-1.88-.27-2.63.14-.85.46-1.47,1.23-1.82,2.1-.41,1.05-.35,2.23-.28,3.34.03.6.99.63.95.03h0Z"/>
        <path class="cls-1" d="m275.4,82.68c-.08-1.59-.12-3.31,1.14-4.37.24-.2.53-.36.82-.46.29-.1.65-.2.94,0,.49.34.66,1.17.78,1.73.21.99.28,2.01.27,3.02,0,.6.89.64.9.03.01-1.06-.07-2.14-.28-3.19-.16-.82-.44-1.77-1.1-2.31-.72-.58-1.71-.29-2.4.12-.77.45-1.34,1.21-1.66,2.08-.38,1.04-.32,2.22-.27,3.32.03.6.9.64.87.04h0Z"/>
      </g>
      <g>
        <g>
          <path class="cls-2" d="m67.29,99.63c-1.06,5.36-2.49,9.52-4.19,12.47-.59.97-1.21,1.51-1.78,1.61-.53.09-1.21-.18-1.93-.77-.74-.62-1.11-1.16-1.11-1.65,0-.29.06-.5.14-.61.1-.14.23-.38.47-.71,1.12-2.29,2.29-5.5,3.44-9.65,1.13-4.09,1.73-8.26,1.74-12.52,0-1.16-.74-1.68-2.08-1.48-3.41.52-8.76.98-10.12,2.24-.6.56-1.29,3.6-2.3,6.52-3.02,8.68-4.71,14.3-5.35,16.65-.4,1.45-.84,2.88-1.29,4.26-.38.67-.78,1.11-1.22,1.2s-.87-.25-1.34-.98c-.49-.78-.74-1.41-.74-1.96,0-.49.14-1.12.5-1.94.63-1.58.95-2.37,1.59-3.94.44-1.08,1.47-4.4,3.26-9.96,1.08-3.39,1.63-5.09,2.76-8.47-3.21,1.18-5.25,2.17-6.37,2.89-.99.63-1.55.95-1.76,1-.85.17-1.43-.89-1.7-3.21.05-.25.08-.37.14-.62,3.39-1.73,7.11-3.23,11.18-4.54.2-.6.3-.9.5-1.51,1.56-4.77,2.69-7.84,3.4-9.31.35-.84,1.01-1.38,1.95-1.53,1.25-.2,2.03.42,2.31,1.83,0,.44-.51,1.63-1.51,3.59-.54,1.01-1.36,2.89-2.42,5.71,3.42-.87,6.34-1.47,8.65-1.81,2.26-.34,4.11.08,5.42,1.19.75.71,1.16,1.82,1.16,3.31-.01,4-.48,8.23-1.36,12.69Z"/>
          <path class="cls-2" d="m118.01,103.97c-7.36,1.56-15.24,2.77-23.45,3.58-6.4.63-10.39-.1-12.35-2.3-1.34-1.51-2-3.82-1.98-6.88,0-1.58.1-5.21.32-10.86.21-5.59.31-9.51.32-11.72,0-.38-.09-.98-.22-1.6-.13-.63-.22-1.08-.22-1.36,0-.57.31-1.03.95-1.44.5-.32,1.12-.55,1.86-.62,1.19-.12,2.1.27,2.79,1.1.23.65.4,1.39.39,2.35-.01,2.86-.26,6.94-.62,12.14.05,0,.07,0,.12-.01,6.33-1.86,13.83-5.54,22.87-10.87.39-.21.67-.47.84-.8.14-.27.58-.5,1.3-.54,1.17-.06,2.18.17,2.94.61.78.45,1.18,1.13,1.18,1.93,0,.71-.6,1.3-1.78,1.83-.47.21-.71.32-1.18.53-5.1,2.34-8.17,3.84-9.43,4.41-3.39,1.57-6.27,2.85-8.74,3.79-4.34,1.68-7.04,2.64-8.41,2.89-.24,3.85-.37,6.82-.38,8.87-.02,3.96,3.04,5.52,9.75,4.88,4.29-.41,10.53-1.64,19.17-3.32.92-.29,1.59-.46,2.12-.49,1.2-.06,2.32.27,3.07.94.34.32.51.69.51,1.11,0,.66-.52,1.29-1.72,1.87Zm5.83-29.65c-1.08.97-2.55,1.48-4.4,1.55-1.79.06-3.68-.29-4.85-.98-1.2-.71-1.83-1.8-1.83-3.22,0-.94.37-1.91,1.13-2.88.73-.94,1.65-1.68,2.78-2.19.66-.31,1.27-.47,1.67-.49.67-.02,1.37.14,2.18.4.14.09.21.13.34.22,1.38-.04,2.54.35,3.35,1.13.78.75,1.22,1.76,1.22,2.89,0,1.41-.57,2.65-1.59,3.57Zm-2.19-5.02c-.27-.19-.79-.42-1.26-.53-.61-.13-1.13-.29-1.39-.57-1.59,1-2.41,2.07-2.41,3.2,0,1.7,1.06,2.45,2.57,2.4.81-.03,1.63-.34,2.25-1.02.52-.57.8-1.3.81-1.95,0-.71-.23-1.3-.56-1.54Z"/>
          <path class="cls-2" d="m143.81,76.94c-.41.56-.67.84-.67.84-1.14,1.77-2.49,4.33-3.97,7.75-1.65,3.69-2.48,5.54-4.15,9.25-.96,2.12-1.82,3.97-2.21,5.37-.26.93-.86,1.51-1.88,1.53-.64,0-1.34-.45-2.09-1.28-.75-.83-1.13-1.57-1.13-2.19,0-.19.11-.43.33-.81.35-.53.53-.8.88-1.33.88-1.33,1.92-3.33,3.22-6.07,2.52-5.39,3.77-8.07,6.23-13.41.1-.14.21-.47.42-.98.11-.3.16-.45.27-.75.27-.75.84-1.17,1.71-1.16.82,0,1.7.29,2.44.78.69.46,1.1,1.1,1.09,1.66,0,.14-.21.42-.51.79Zm26.18,24.66c-.48.51-1.15.76-1.74.67-1-.16-1.58-.63-1.57-1.1.02-1.13-.24-2.65-.77-4.67-1.68-6.28-3.95-11.74-6.84-16.31-.7-1.07-1.36-1.9-1.97-2.54-.38-.25-.67-.45-.86-.56-.38-.25-.52-.59-.51-1.01,0-.38.3-.85.69-1.38.41-.55.98-.99,1.74-.95.57.03,1.33.54,2.27,1.53,2.24,2.47,4.5,6.33,6.75,11.52,2.4,5.52,3.59,9.87,3.54,12.98-.01.75-.28,1.35-.73,1.83Zm-3.15-25.66c-.38.26-.8.37-1.27.34-.09,0-.17-.14-.23-.34-.03-.09-.15-.27-.31-.52-.24-.38-.48-.77-.66-1-.2-.25-.63-.7-1.42-.93-.17-.05-.76-.21-1.21-.77-.32-.41-.39-.89-.45-1.02-.05-.11-.25-.34-.18-.48.15-.35,1.29.12,1.66-.34.32-.39-.28-1.07-.02-1.36.34-.39,2.02.2,3.18,1.34,1.25,1.22,1.76,2.89,1.54,3.94-.05.25-.16.82-.63,1.14Zm4.4-2.85c-.43.3-.85.41-1.27.38-.14,0-.24-.11-.28-.3-.07-.34-.21-.82-.59-1.17-.61-.56-1.28-.33-1.94-.75-.4-.26-.64-1.36-1.02-1.99-.06-.09-.18-.29-.18-.53,0-.16-.04-.41.09-.55.27-.3,1.01.08,1.11-.1.09-.17-.52-.56-.44-.82.07-.23.66-.22.87-.21,2.04.11,3.21,1.44,3.21,1.44,0,0,1.12,1.26,1.06,3.52,0,.07.25.47-.63,1.09Z"/>
          <path class="cls-2" d="m206.35,98.06c-3.09,2.87-6.57,5.4-10.5,7.55-6.19,3.43-10.39,5.25-12.04,4.87-1.28-.29-2.23-1.97-2.47-4.45,1.69-.22,3.83-.81,6.4-1.78,2.15-.81,5.06-2.37,8.78-4.55,3.84-2.24,6.88-4.75,9.04-7.58.72-.97,1.14-1.93,1.15-2.98.02-1.43-1-2.29-2.9-2.48-1.85-.19-4.6-.28-8.18-.3-5.33-.02-10.68.56-16.03,1.74-1.27.27-1.97.4-2.16.38-1.4-.12-2.08-1.26-2.05-3.43,0-.34,0-.51.01-.85,9.16-1.52,19.42-2,28.65-1.04,1.8.19,3.32.71,4.54,1.59,1.73,1.31,2.65,2.93,2.63,4.74-.03,2.76-1.7,5.6-4.88,8.56Zm-2.52-21.05c-.2-.02-.55-.1-.99-.24-.48-.08-.71-.13-1.19-.21-.4-.04-.84-.13-1.28-.17-5.32-.52-10.32-.57-15.23-.21-1.25.1-1.87.14-3.11.24-.84-.07-1.49-.65-1.89-1.72-.18-.39-.24-.8-.21-1.25.03-.49.39-1.01,1.01-1.47.74.25,1.4.4,2.01.46.33.03,1.5.04,3.53-.02,1.78,0,2.67-.01,4.46-.02,2.72.06,5.82.05,9.34-.01,1.17-.02,1.88-.06,2.03-.04.89.09,1.88.61,2.88,1.47.4.42.64.92.64,1.49-.02,1.28-.68,1.84-1.98,1.71Z"/>
          <path class="cls-2" d="m253.84,96.94c-2.35,3.89-7.42,7.35-12.77,10.35-3.91,2.19-6.55,3.67-8.1,4.49-4.05,1.94-7.16,3-8.81,2.66-1.66-.34-2.78-2.15-3.09-4.76.39-.06.78-.11,1.22-.17,4.91-1,11.45-4.15,20.1-9.69,5.64-3.6,9.95-7.62,11.78-12.05.61-1.51.97-3.08.99-4.63.02-1.55-.77-2.37-2.27-2.46-3.61-.23-12.46-.16-18.62.6-1.78.24-3.92.47-6.22.88-1.35.24-2.1.35-2.16.34-1.86-.16-2.73-1.44-2.71-3.88,0-.34,0-.52,0-.86,9.76-1.18,20.07-1.63,29.89-1.02,1.46.09,2.63.65,3.49,1.47.88.83,1.49,1.78,1.7,2.71.22.95.41,1.77.4,2.35-.04,3.97-1.75,8.57-4.83,13.68Zm7.18-15.48c-.34.27-.72.4-1.12.37-.08,0-.14-.14-.19-.35-.05-.18-.34-.73-.81-1.55-.4-.69-.92-1.31-1.45-1.92-.23-.16-.61-.42-1.06-.84-.11-.05-.15-.2-.15-.49.01-1.21.43-1.81,1.32-1.76.62.03,1.44.76,2.44,2.12,1.02,1.39,1.53,2.46,1.52,3.23,0,.48-.17.93-.49,1.18Zm3.36-2.49c-.37.31-.75.45-1.11.43-.12,0-.2-.11-.24-.3-.24-.74-.68-1.59-1.39-2.5-.52-.61-1.07-1.12-1.66-1.44-.12-.1-.16-.3-.15-.54,0-.48.15-.87.41-1.24.25-.35.56-.55.96-.53.56.03,1.32.7,2.28,2.01s1.46,2.3,1.45,2.98c0,.48-.22.86-.55,1.14Z"/>
          <path class="cls-2" d="m299.59,109.53c-.06,1.07-.1,1.78-.12,2.1-.05.83-.43,1.46-.85,1.83-.42.38-1,.56-1.63.54-.63-.02-1.25-.28-1.81-.69-.33-.24-.49-.37-.82-.61-.26-.06-.56-.07-.97-.08-2.04-.06-5.24-.07-9.44-.05-.34-.01-8.84-1.54-12.23.4-.31.18-.8.83-1.42.8-.88-.05-1.47-.71-1.81-1.94-.76-1.21-1.06-6.27-.97-15.19.02-2.57.24-6.72.37-12.16,0-.24,0-.63-.03-1.07-.03-.4-.08-.78-.08-1.02,0-.97.52-1.43,1.64-1.38.48.02,1.25.74,1.82.91,5.08,1.49,16.07-1.03,22.81-.87,2.45.06,4.45,1.1,5.27,2.85.35.74.51,2.11.5,3.77-.09,8.74-.14,13.11-.24,21.85Zm-4.75-24.01c-.3-.54-.71-.85-1.32-.86-6.37-.16-13.04.04-19.56.69-.62.06-1.34.18-2.23.29-.06.39-.08.58-.14.96-.33,2.17-.49,5.56-.53,10.22-.03,3.06.02,5.75.15,7.97.09,1.54.2,2.82.23,3.56.01.27,0,.64.08.68.26.16,1.29.07,2.09.06,1.35-.03,3.87-.05,7.67-.13,5.18-.13,7.89-.21,13.51-.39.15-7.37.25-14.25.29-20.65,0-.88-.09-1.66-.24-2.4Z"/>
          <path class="cls-2" d="m348.23,101.31c-2.88,3.8-6.5,7.42-10.84,10.91-6.56,5.28-11.22,8.15-13.37,7.91-1.45-.16-2.51-1.78-2.85-4.24,1.81-.28,4.48-1.64,8-4.01,2.88-1.95,5.88-4.4,8.86-7.34,2.98-2.94,5.46-5.84,7.34-8.69,1.84-2.78,2.81-5.14,2.81-7.11,0-1.13-1.15-1.7-3.43-1.65-4.17.08-8.32.64-12.32,1.56-1.7.46-3.32.91-4.99,1.36-2.86.8-4.43,1.14-4.72,1.14h-.12c-1.64,1.67-3.09,3.25-4.36,4.8-1.37,1.66-2.3,3.27-2.71,4.84-1.36-.01-2.49-.46-3.44-1.36-.67-.6-.94-1.24-.94-2.02,0-.74,1.01-2.19,3.05-4.38,4.37-4.67,8.68-8.65,12.97-11.97,1.01-.79,2.04-1.66,3.11-2.43,1.47-1.05,2.72-1.6,3.57-1.61,1.1-.01,1.92.22,2.44.71.49.46.8.97.79,1.47,0,.54-.28,1.04-.68,1.24-.5.25-1.41.66-2.39,1.26-1.59,1.05-3.22,2.25-4.96,3.64,1.32-.21,3.01-.53,5.14-.83,3.88-.56,7.52-.9,10.74-.96,3.79-.08,6.44.78,7.86,2.52.58.77.91,1.55.91,2.39,0,3.85-1.92,8.16-5.49,12.87Zm7.58-17.67c-.52.31-1.11.48-1.76.5-.13,0-.24-.14-.32-.34-.08-.18-.58-.72-1.36-1.49-.67-.67-1.55-1.24-2.45-1.81-.38-.14-1.03-.37-1.79-.74-.19-.04-.25-.19-.25-.49,0-1.23.7-1.89,2.18-1.93,1.03-.03,2.4.62,4.06,1.91,1.68,1.3,2.54,2.34,2.54,3.13,0,.49-.33.95-.85,1.26Zm6.26-3.47c-.6.36-1.2.54-1.79.56-.2,0-.33-.09-.4-.28-.4-.73-1.12-1.54-2.3-2.39-.85-.56-1.77-1.03-2.74-1.3-.19-.09-.26-.29-.26-.53,0-.49.2-.97.59-1.35.37-.36.98-.57,1.63-.6.92-.03,2.16.57,3.75,1.8,1.59,1.23,2.39,2.19,2.39,2.88,0,.49-.34.9-.86,1.22Z"/>
        </g>
        <path class="cls-2" d="m289.14,96.47c2.46.08,2.49-3.67.03-3.75-2.46-.08-2.49,3.67-.03,3.75h0Z"/>
        <path class="cls-2" d="m277.23,96.62c2.28.1,2.31-3.64.03-3.74-2.28-.1-2.31,3.64-.03,3.74h0Z"/>
        <g>
          <path class="cls-2" d="m281.98,95.46c.26.21.51.41.77.62.1.08.21.17.34.19.17.03.33-.06.47-.15.25-.16.49-.34.72-.53"/>
          <path class="cls-2" d="m281.74,95.86c.2.16.41.33.61.49.23.19.47.38.78.39.3,0,.55-.14.79-.3.23-.16.46-.33.68-.51.19-.15.18-.49,0-.66-.19-.19-.46-.19-.66-.02-.09.07-.18.14-.27.21-.04.03-.05.03,0,0-.02.02-.05.03-.07.05-.03.02-.07.05-.11.07-.09.06-.18.12-.28.18-.02.01-.05.02-.07.04.05-.02.05-.02,0,0-.05.01-.05.01.01,0-.05,0-.05,0-.01,0,.03,0,.03,0-.01,0,.05.03.05.03,0,0-.04-.03-.09-.06-.13-.09-.09-.07-.17-.14-.26-.21-.18-.15-.36-.29-.54-.44-.19-.15-.52-.06-.63.14-.13.24-.05.48.16.65h0Z"/>
        </g>
        <g>
          <path class="cls-2" d="m283.11,96.86c0,.34,0,.68,0,1.01"/>
          <path class="cls-2" d="m282.65,96.84c0,.34,0,.68,0,1.01,0,.12.05.25.13.34.08.08.21.15.32.15.12,0,.24-.04.33-.12.08-.09.14-.2.14-.33,0-.34,0-.68,0-1.01,0-.12-.05-.25-.13-.34-.08-.08-.21-.15-.32-.15-.12,0-.24.04-.33.12-.08.09-.14.2-.14.33h0Z"/>
        </g>
        <g>
          <path class="cls-2" d="m280.8,97.28c.25.69,1.12,1.08,1.76.78.24-.11.47-.3.73-.24.14.03.25.13.38.21.58.38,1.44.2,1.81-.38"/>
          <path class="cls-2" d="m280.37,97.38c.21.55.61.95,1.16,1.14.27.09.55.11.83.08.29-.04.51-.2.77-.3.03-.01.07-.03.1-.03-.08,0,.07.05.09.07.13.09.25.16.39.22.24.1.51.15.77.13.58-.04,1.08-.31,1.41-.79.33-.5-.47-.99-.8-.5-.18.27-.5.38-.81.35-.15-.01-.29-.07-.42-.17-.25-.17-.5-.29-.81-.24-.4.06-.69.39-1.1.33-.26-.04-.59-.23-.7-.51-.09-.24-.3-.41-.56-.35-.21.05-.41.32-.32.56h0Z"/>
        </g>
        <g>
          <path class="cls-2" d="m288.75,81.77c-.06-.98-.11-2,.16-2.89.17-.57.45-1.04.78-1.41.52-.58,1.15-.92,1.8-1.08.38-.09.79-.12,1.16.1.62.38.96,1.37,1.15,2.32.18.92.27,1.89.25,2.84"/>
          <path class="cls-2" d="m289.23,81.78c-.09-1.59-.14-3.32,1.24-4.4.26-.21.58-.37.9-.47.31-.1.72-.21,1.03-.02.54.33.73,1.17.85,1.72.23,1,.31,2.02.3,3.03,0,.6.98.63.98.02.01-1.07-.09-2.15-.32-3.19-.18-.82-.48-1.77-1.21-2.31-.78-.57-1.88-.27-2.63.14-.85.46-1.47,1.23-1.82,2.1-.41,1.05-.35,2.23-.28,3.34.03.6.99.63.95.03h0Z"/>
        </g>
        <g>
          <path class="cls-2" d="m274.97,82.66c-.05-.97-.09-2,.15-2.88.15-.56.41-1.03.71-1.39.48-.58,1.05-.91,1.65-1.06.35-.09.72-.11,1.06.11.56.38.87,1.37,1.04,2.32.16.92.24,1.88.23,2.84"/>
          <path class="cls-2" d="m275.4,82.68c-.08-1.59-.12-3.31,1.14-4.37.24-.2.53-.36.82-.46.29-.1.65-.2.94,0,.49.34.66,1.17.78,1.73.21.99.28,2.01.27,3.02,0,.6.89.64.9.03.01-1.06-.07-2.14-.28-3.19-.16-.82-.44-1.77-1.1-2.31-.72-.58-1.71-.29-2.4.12-.77.45-1.34,1.21-1.66,2.08-.38,1.04-.32,2.22-.27,3.32.03.6.9.64.87.04h0Z"/>
        </g>
      </g>
    </g>
  </g>
  <g id="_レイヤー_3" data-name="レイヤー 3">
    <path class="cls-3" d="m164.67,10.02c-.74-5.31,1.25-9.23,3.11-9.51,1.83-.28,4.79,2.78,5.76,7.81"/>
    <path class="cls-3" d="m147.54,13.08c-.74-5.31,1.25-9.23,3.11-9.51,1.83-.28,4.79,2.78,5.76,7.81"/>
    <path class="cls-1" d="m172.77,35.47c3.22,0,3.22-5,0-5s-3.22,5,0,5h0Z"/>
    <path class="cls-1" d="m155.75,37.83c3.22,0,3.22-5,0-5s-3.22,5,0,5h0Z"/>
    <g>
      <path class="cls-1" d="m162.74,35.71l1.17.89c.17.13.34.28.55.37.27.11.56.09.81-.05.38-.21.67-.63.92-.98s.46-.71.64-1.1c.11-.25.07-.54-.18-.68-.21-.12-.57-.07-.68.18-.15.33-.32.64-.52.93-.18.26-.39.55-.66.77-.03.02-.01-.01-.03.01-.03.02-.03.02,0,0h.03s.06,0,.06,0c0,0-.1-.06-.11-.07-.17-.12-.33-.25-.49-.37l-1.01-.77c-.22-.16-.56-.03-.68.18-.15.26-.04.52.18.68h0Z"/>
      <path class="cls-1" d="m164.29,36.63c-.02.69.06,1.39.23,2.06.07.25.36.43.62.35s.42-.34.35-.62c-.04-.15-.07-.31-.1-.47-.01-.08-.03-.16-.04-.24-.02-.13,0,.07,0-.03,0-.04,0-.07-.01-.11-.03-.32-.05-.63-.04-.95,0-.26-.24-.51-.5-.5-.28.01-.49.22-.5.5h0Z"/>
      <path class="cls-1" d="m160.83,38.91c.94,1.73,3.35,1.77,4.41.14l-.68.18c1.78.83,3.89.26,4.93-1.43.34-.55-.53-1.05-.86-.5-.36.59-.93,1.04-1.6,1.23-.42.12-.87.13-1.3.05-.16-.03-.31-.07-.46-.13-.13-.04-.14-.05-.2-.08-.25-.12-.53-.06-.68.18-.67,1.02-2.11.9-2.68-.14-.31-.57-1.17-.06-.86.5h0Z"/>
    </g>
    <path class="cls-1" d="m147.29,27.73c1.72,1.64,4.34,2.36,6.69,2.24s3.65-1.47,4.31-3.67l-.62.35c2.42.81,5.11,1.64,7.65.89,1.79-.53,3.42-1.89,3.71-3.8l-.84.22c1.44,1.3,2.68,2.38,4.68,2.62,1.08.13,2.06.07,3.1-.23,1.17-.33,1.85-1.09,2.72-1.93.46-.45-.25-1.16-.71-.71-.76.74-1.36,1.42-2.4,1.71-.93.25-1.83.28-2.8.14-1.66-.24-2.69-1.23-3.89-2.31-.25-.22-.78-.18-.84.22-.3,2-2.25,3.13-4.14,3.32-2.05.21-4.08-.47-6-1.11-.26-.09-.54.1-.62.35-.63,2.09-1.88,3.04-4.11,2.94-1.86-.09-3.84-.64-5.22-1.95-.47-.44-1.17.26-.71.71h0Z"/>
    <path class="cls-1" d="m142.43,18.71c-2.01,3.41-5.34,11.9.01,14.04l-.12-.91c-2.52,1.83-4.43,4.72-4.3,7.94.12,2.99,2.01,5.72,4.85,6.71.61.21.87-.75.27-.96-2.53-.88-4.16-3.45-4.12-6.1s1.67-5.16,3.81-6.72c.36-.27.29-.75-.12-.91-2.5-1-2.2-4.24-1.79-6.38s1.24-4.26,2.37-6.18c.33-.56-.54-1.06-.86-.5h0Z"/>
    <path class="cls-1" d="m180.74,12.9c3.24,1.1,5.28,4.02,6.28,7.17.87,2.74,2.01,7.22.05,9.73-.17.22-.2.49,0,.71,2.78,2.99,3.16,7.63.94,11.05-.35.54.51,1.04.86.5,2.46-3.8,1.98-8.95-1.1-12.26v.71c2.24-2.88,1.21-7.52.2-10.7-1.11-3.51-3.39-6.65-6.98-7.87-.61-.21-.87.76-.27.96h0Z"/>
    <path class="cls-1" d="m142.75,50.35c-.88.46-1.09,1.5-1.31,2.39-.29,1.2-.54,2.41-.7,3.64-.15,1.15-.16,2.34.29,3.43s1.25,1.9,2.05,2.71c.45.46,1.16-.25.71-.71-.67-.68-1.38-1.39-1.79-2.27s-.4-1.97-.28-2.95.32-1.99.54-2.96c.16-.71.26-2.02.99-2.4.57-.3.06-1.16-.5-.86h0Z"/>
    <path class="cls-1" d="m189.21,45.8c4.66,3.23,5.93,9.58,2.96,14.39-.34.55.53,1.05.86.5,3.27-5.3,1.78-12.23-3.32-15.76-.53-.37-1.03.5-.5.86h0Z"/>
  </g>
  <g id="_レイヤー_4" data-name="レイヤー 4">
    <path class="cls-1" d="m11.6,103.11c-4.96,1.82-9.47,5.8-10.95,10.98-.83,2.9-.96,6.18.19,9.01,1.38,3.4,4.36,5.08,7.77,5.97,4.71,1.24,9.62,1.94,14.49,1.83l-.35-.85c-2.43,2.48-4.05,5.66-4.54,9.11-.16,1.15-.44,2.83-.04,3.95.53,1.46,1.9,2.95,2.99,4.02,4.72,4.66,11.97,6.06,18.08,3.46,3.52-1.5,6.37-4.18,8.18-7.53l-.93-.25c-.22,5.51,2.63,10.8,7.44,13.54,4.88,2.78,11.1,2.47,15.69-.77,2.6-1.83,4.48-4.41,5.52-7.4.21-.61-.75-.87-.96-.27-2.25,6.48-9.09,10.51-15.85,9.05s-11.1-7.49-10.84-14.15c.02-.49-.7-.68-.93-.25-3.84,7.12-12.63,10.36-20.1,7.01-1.76-.79-3.36-1.9-4.72-3.27-1.14-1.15-2.65-2.74-2.7-4.43-.11-4.15,1.5-8.15,4.4-11.12.3-.3.09-.86-.35-.85-4.03.09-7.97-.45-11.91-1.27-3.29-.68-6.82-1.54-8.73-4.57-3.48-5.51-.57-13.05,4.03-16.85,1.59-1.31,3.44-2.43,5.39-3.14.6-.22.34-1.19-.27-.96h0Z"/>
    <path class="cls-1" d="m385.99,81.2c4.59-3.06,8.05-8.26,8.05-13.88,0-2.77-.63-5.7-2.26-7.99-2.09-2.94-5.27-3.95-8.74-4.05-4.96-.14-10.01.35-14.8,1.63l.56.73c1.76-2.95,2.59-6.4,2.26-9.83-.11-1.17-.22-2.8-.84-3.84-.75-1.28-2.48-2.4-3.72-3.17-5.84-3.63-13.5-3.21-18.91,1.02-2.9,2.27-4.93,5.46-5.86,9.02h.96c-1.1-5.46-5.2-9.96-10.6-11.43s-11.35.36-14.99,4.62c-2.04,2.38-3.22,5.29-3.52,8.39-.06.64.94.64,1,0,.65-6.76,6.27-12.25,13.11-12.52s12.71,4.61,14.04,11.21c.1.49.84.46.96,0,2.04-7.78,9.75-12.99,17.76-11.57,1.96.35,3.85,1.07,5.54,2.13,1.5.93,3.2,2.08,3.66,3.86,1.01,3.95.36,8.12-1.72,11.62-.23.38.15.85.56.73,3.92-1.05,7.9-1.44,11.94-1.58,3.44-.12,7.12-.07,9.68,2.58,4.32,4.47,3.45,12.08.12,16.77-1.28,1.8-2.92,3.45-4.76,4.68-.53.36-.03,1.22.5.86h0Z"/>
    <path class="cls-1" d="m288.75,136.18c-2.06,6.54,0,14.32,6.04,17.98,5.36,3.25,13.49,3.25,18.91.16,3.57-2.04,6.19-5.43,7.47-9.31l-.98-.13c-.28,2.95.56,5.99,2.35,8.34s4.44,3.57,7.22,4.65c6.89,2.67,15-.32,18.1-7.12,1.65-3.63,1.73-7.75.35-11.47l-.84.49c4.9,5.47,13.35,6.63,19.43,2.39s7.89-12.01,4.86-18.51c-.27-.58-1.13-.08-.86.5,2.84,6.09.86,13.62-4.8,17.34s-13.39,2.63-17.92-2.44c-.32-.36-1.01.02-.84.49,1.45,3.93,1.23,8.32-.91,11.97s-6.31,6.18-10.7,6.34c-2.39.09-4.4-.56-6.59-1.38-1.28-.48-2.48-.95-3.59-1.77-3.06-2.27-4.61-6.07-4.26-9.82.06-.59-.81-.64-.98-.13-1.05,3.18-3.08,6.03-5.83,7.97s-6.03,2.7-9.38,2.81c-2.8.09-5.68-.28-8.25-1.45-3.84-1.75-6.56-5.22-7.43-9.35-.56-2.68-.44-5.65.39-8.27.19-.62-.77-.88-.96-.27h0Z"/>
  </g>
</svg>