<?xml version="1.0" encoding="UTF-8"?>
<svg id="_レイヤー_1" data-name="レイヤー 1" xmlns="http://www.w3.org/2000/svg" viewBox="0 0 210.98 248.48">
  <defs>
    <style>
      .cls-1 {
        fill: #77677c;
      }
    </style>
  </defs>
  <path class="cls-1" d="m210.36,213.78c-.31,6.88-.63,11.25-.63,13.44-.62,5.62-2.5,9.37-5,11.87-2.5,2.5-5.93,3.75-9.69,3.75s-7.5-1.56-10.94-4.06l-5-3.75c-1.56-.31-3.44-.31-5.94-.31-12.5,0-32.19.62-59.38,1.87-2.19,0-29.7,1.88-82.52,6.25-2.5,3.75-5.63,5.63-10,5.63-6.25,0-10.63-4.06-13.13-11.88C2.5,229.1,0,196.59,0,139.08c0-16.56.62-42.82,1.87-78.45,0-1.56-.31-3.75-.31-6.88-.62-2.81-.62-5-.62-6.56,0-6.25,3.74-9.38,11.87-9.38,3.44,0,7.81,1.88,13.13,5.32,58.76-6.88,108.77-10.63,150.03-10.63,15,0,25.63,5.94,31.88,17.5,1.87,5.31,3.13,13.44,3.13,24.07l-.63,139.72Zm-29.38-152.84c-1.88-3.44-4.38-5.32-8.13-5.32-39.07,0-81.58,3.13-127.53,8.75-4.37.63-9.37,1.56-15.63,2.5l-.93,6.25c-2.19,14.07-3.13,35.94-3.13,65.95,0,19.69.32,36.89,1.56,51.26.63,10,1.26,17.82,1.88,22.82,0,1.88,0,3.44.62,4.38,4.07,0,9.07,0,14.69-.31,9.38-.63,26.88-1.56,51.89-3.13l85.33-5.62c.62-47.2.94-91.27.94-132.22,0-5.63-.63-10.63-1.56-15.31Z"/>
  <path class="cls-1" d="m146.11,130.08c5.23,0,10.24-4.6,10-10s-4.39-10-10-10c-5.23,0-10.24,4.6-10,10s4.39,10,10,10h0Z"/>
  <path class="cls-1" d="m68.4,133.89c5.23,0,10.24-4.6,10-10s-4.39-10-10-10c-5.23,0-10.24,4.6-10,10s4.39,10,10,10h0Z"/>
  <path class="cls-1" d="m98.81,129.38c1.35,1,2.7,2.01,4.04,3.01,1.47,1.09,2.94,2.28,4.88,2.25,1.84-.03,3.4-1.04,4.86-2.06s2.89-2.15,4.24-3.33c.99-.86.95-2.66,0-3.54-1.05-.97-2.48-.92-3.54,0s-1.92,1.61-3,2.39c-.59.42-1.18.84-1.81,1.2-.15.09-.3.17-.45.25.21-.08.17-.06-.11.03-.3.07-.32.08-.07.05-.28,0-.33,0-.16.02.17.03.11.01-.15-.05.21.1.19.09-.08-.05-.29-.18-.57-.36-.84-.56-.57-.41-1.14-.84-1.7-1.27-1.19-.89-2.39-1.78-3.58-2.67-1.05-.78-2.84-.21-3.42.9-.69,1.31-.23,2.58.9,3.42h0Z"/>
  <path class="cls-1" d="m105.07,135.92v6.51c0,1.31,1.15,2.56,2.5,2.5s2.5-1.1,2.5-2.5v-6.51c0-1.31-1.15-2.56-2.5-2.5s-2.5,1.1-2.5,2.5h0Z"/>
  <path class="cls-1" d="m90.01,139.84c1.37,3.32,4.04,5.77,7.54,6.74,1.66.46,3.4.53,5.09.23,1.81-.32,3.2-1.37,4.84-2.09.68-.3.92-.28,1.53.11.82.51,1.57.99,2.47,1.35,1.49.61,3.14.87,4.75.74,3.62-.28,6.89-2.09,8.87-5.17,1.74-2.72-2.58-5.23-4.32-2.52-1.19,1.85-3.42,2.77-5.51,2.72-1.1-.03-2.09-.39-3.05-1-1.63-1.03-3.22-1.72-5.19-1.32-1.55.31-2.82,1.35-4.19,1.95-.98.43-2.08.52-3.02.39-2.01-.27-4.19-1.56-4.97-3.46-.51-1.25-1.66-2.14-3.08-1.75-1.18.32-2.26,1.82-1.75,3.08h0Z"/>
  <path class="cls-1" d="m145.53,37.95c-.35-5.5-.8-11.21.44-16.64,1.1-4.82,3.7-9.2,7.56-12.31,1.77-1.43,3.85-2.55,6.01-3.26,2-.66,4.37-1.26,6.31-.09,1.52.92,2.56,2.71,3.35,4.35,1.03,2.15,1.68,4.5,2.21,6.82,1.47,6.39,2.03,12.99,2.01,19.53-.01,3.22,4.99,3.22,5,0,.03-6.71-.59-13.48-2-20.05-1.11-5.14-2.89-11.16-7.3-14.45-4.73-3.54-11.41-1.37-15.99,1.38-5.09,3.06-8.89,7.91-10.97,13.44-2.54,6.74-2.06,14.24-1.62,21.29.2,3.2,5.2,3.22,5,0h0Z"/>
  <path class="cls-1" d="m54.62,46.8c-.35-5.5-.8-11.21.44-16.64,1.1-4.82,3.7-9.2,7.56-12.31,1.77-1.43,3.85-2.55,6.01-3.26,2-.66,4.37-1.26,6.31-.09,1.52.92,2.56,2.71,3.35,4.35,1.03,2.15,1.68,4.5,2.21,6.82,1.47,6.39,2.03,12.99,2.01,19.53-.01,3.22,4.99,3.22,5,0,.03-6.71-.59-13.48-2-20.05-1.11-5.14-2.89-11.16-7.3-14.45-4.73-3.54-11.41-1.37-15.99,1.38-5.09,3.06-8.89,7.91-10.97,13.44-2.54,6.74-2.06,14.24-1.62,21.29.2,3.2,5.2,3.22,5,0h0Z"/>
</svg>